# xmcd
#
# Track frame offsets:
#       150
#       12126
#       24425
#       38998
#       50087
#       62637
#       76044
#       87245
#       101238
#       114345
#       127879
#       141715
#       155428
#       166718
#       178066
#       190588
#       202333
#       214784
#       225042
#       233936
#       242466
#       250096
#       258419
#       269407
#       280040
#       289072
#       298619
#       304973
#
# Disc length: 4181 seconds
#
# Revision: 0
# Processed by: cddbd v1.4PL0 Copyright (c) Steve Scherf et al.
# Submitted via: WhereIsIt 3.26
#
DISCID=8910531c
DTITLE=Hank Williams - complete cd 3
DYEAR=1900
DGENRE=
TTITLE0=dear john
TTITLE1=just waitin
TTITLE2=men with broken hearts
TTITLE3=i can't help it
TTITLE4=howlin at the moon
TTITLE5=hey good lookin
TTITLE6=my heart would know
TTITLE7=ramblin' man
TTITLE8=pictures from life's other side
TTITLE9=I've been down that road before
TTITLE10=I dreamed about mama last night
TTITLE11=I'd still want you
TTITLE12=lonesome whistle
TTITLE13=crazy heart
TTITLE14=half as much
TTITLE15=baby we're really in love
TTITLE16=I'm sorry for you my friend
TTITLE17=honky tonk blues
TTITLE18=won't you sometimes think of me
TTITLE19=why should I cry
TTITLE20=you broke your own heart
TTITLE21=I watched my dream world crumble like clay
TTITLE22=in my dreams you still belong to me
TTITLE23=I told a lie to my heart
TTITLE24=singing waterfall
TTITLE25=pan american
TTITLE26=I'm coin' home
TTITLE27=a home in heaven
EXTD=
EXTT0=
EXTT1=
EXTT2=
EXTT3=
EXTT4=
EXTT5=
EXTT6=
EXTT7=
EXTT8=
EXTT9=
EXTT10=
EXTT11=
EXTT12=
EXTT13=
EXTT14=
EXTT15=
EXTT16=
EXTT17=
EXTT18=
EXTT19=
EXTT20=
EXTT21=
EXTT22=
EXTT23=
EXTT24=
EXTT25=
EXTT26=
EXTT27=
PLAYORDER=
